<svg width="32" height="32" viewBox="0 0 32 32" fill="none" xmlns="http://www.w3.org/2000/svg">
<path d="M18.0035 28.9886C17.8486 28.9886 17.6934 28.9527 17.5508 28.8803L13.55 26.849C13.3854 26.7654 13.2471 26.6379 13.1505 26.4805C13.0539 26.3231 13.0027 26.1421 13.0027 25.9574V15.5525L5.16202 7.71173C5.02217 7.57188 4.92694 7.3937 4.88835 7.19972C4.84977 7.00574 4.86957 6.80468 4.94526 6.62196C5.02095 6.43924 5.14911 6.28306 5.31356 6.17318C5.478 6.0633 5.67134 6.00464 5.86912 6.00464H25.8959C26.0937 6.00464 26.287 6.0633 26.4515 6.17318C26.6159 6.28306 26.7441 6.43924 26.8198 6.62196C26.8954 6.80468 26.9152 7.00574 26.8767 7.19972C26.8381 7.3937 26.7428 7.57188 26.603 7.71173L19.0035 15.3112V27.9886C19.0035 28.12 18.9777 28.25 18.9274 28.3713C18.8772 28.4927 18.8035 28.6029 18.7106 28.6958C18.6178 28.7886 18.5075 28.8623 18.3862 28.9126C18.2649 28.9628 18.1348 28.9887 18.0035 28.9886ZM15.0027 25.3436L17.0035 26.3594V14.897C17.0035 14.7657 17.0294 14.6357 17.0796 14.5143C17.1299 14.393 17.2036 14.2828 17.2964 14.1899L23.4817 8.00464H8.28333L14.7098 14.4311C14.8974 14.6187 15.0027 14.873 15.0027 15.1382V25.3436Z" fill="white" fill-opacity="0.7"/>
</svg>
