<svg width="29" height="28" viewBox="0 0 29 28" fill="none" xmlns="http://www.w3.org/2000/svg">
<path d="M26.0756 11.3523C23.2362 7.616 19.0685 5.25 14.4143 5.25C9.75908 5.25 5.60942 7.616 2.75287 11.3523C1.49221 12.9999 1.49221 15.4473 2.75287 17.0958C5.60942 20.832 9.7762 23.198 14.4134 23.198C19.0685 23.198 23.2191 20.832 26.0756 17.0958C27.3363 15.4481 27.3363 13.0008 26.0756 11.3523ZM14.4179 20.076C12.8649 20.0744 11.3761 19.4746 10.278 18.4084C9.1799 17.3421 8.56226 15.8964 8.56059 14.3885C8.56059 11.2525 11.1883 8.701 14.4179 8.701C17.6475 8.701 20.2751 11.2525 20.2751 14.3885C20.2751 17.5254 17.6475 20.076 14.4179 20.076ZM14.4179 10.451C13.3425 10.4515 12.3114 10.8665 11.551 11.6048C10.7907 12.3431 10.3633 13.3444 10.3628 14.3885C10.3628 16.5629 12.1795 18.326 14.4179 18.326C16.6562 18.326 18.4729 16.5629 18.4729 14.3885C18.4729 12.2159 16.6562 10.451 14.4179 10.451Z" fill="white"/>
</svg>
