<svg width="42" height="39" viewBox="0 0 42 39" fill="none" xmlns="http://www.w3.org/2000/svg">
<path d="M10.472 13.447H0.0210001L0 13.468L0.0699999 13.566L17.983 36.505L10.521 13.608L10.472 13.447ZM41.727 13.447H31.255L31.206 13.608L23.702 36.589L41.671 13.566L41.741 13.468L41.727 13.447ZM28.602 13.566L28.567 13.447H13.048L13.013 13.566L12.999 13.608L20.818 38.983L28.623 13.608L28.602 13.566ZM16.072 0.735C13.216 0.602 10.927 0.336 9.765 0C9.548 0.133 9.331 0.266001 9.163 0.462001L0.0210001 11.382H10.577L16.072 0.735ZM28.567 11.382L23.443 0.784001C22.596 0.805001 21.721 0.826 20.811 0.826C19.894 0.826 19.019 0.812001 18.165 0.784001L13.041 11.382H28.567ZM41.727 11.382L32.585 0.469C32.417 0.266 32.2 0.14 31.983 0.00700033C30.821 0.343 28.518 0.609 25.655 0.742L31.15 11.389H41.727V11.382Z" fill="url(#paint0_linear_33_169)"/>
<defs>
<linearGradient id="paint0_linear_33_169" x1="20.8705" y1="0" x2="20.8705" y2="38.983" gradientUnits="userSpaceOnUse">
<stop stop-color="#F903A4"/>
<stop offset="1" stop-color="#FFB803"/>
</linearGradient>
</defs>
</svg>
