<svg width="48" height="48" viewBox="0 0 48 48" fill="none" xmlns="http://www.w3.org/2000/svg">
<path d="M31.1872 12.9645C31.1872 7.52678 26.709 3.04858 21.2713 3.04858C15.8335 3.04858 11.3554 7.52674 11.3554 12.9645C11.3554 18.4023 15.8335 22.8804 21.2713 22.8804C26.709 23.0404 31.1872 18.5622 31.1872 12.9645ZM47.8204 35.5153C47.8204 35.3553 47.6604 35.1954 47.5005 35.0354L40.3035 27.8384C39.8237 27.3586 38.864 27.3586 38.2243 27.8384C37.7445 28.3182 37.7445 29.2778 38.2243 29.9176L43.0224 34.7156H27.3488C26.5491 34.7156 25.9094 35.3553 25.9094 36.155C25.9094 36.9547 26.5491 37.5944 27.3488 37.5944H43.1823L38.3842 42.3925C37.9044 42.8723 37.9044 43.8318 38.3842 44.4716C38.7041 44.7915 39.024 44.9514 39.3438 44.9514C39.6637 44.9514 40.1436 44.7915 40.3035 44.4716L47.5005 37.2745C47.6604 37.1146 47.6604 36.9547 47.8204 36.7948C47.9803 36.155 47.9803 35.8352 47.8204 35.5153ZM27.5087 40.1534C25.1097 40.1534 23.1905 38.2342 23.1905 35.8351C23.1905 33.4361 25.1097 31.5169 27.5087 31.5169H36.3051C35.5054 30.8772 35.1856 29.7576 35.1856 28.6381V27.9984C31.5071 24.7997 26.5491 22.8804 21.2713 22.8804C9.59607 23.0404 0 32.4765 0 44.3116H35.3455C35.1856 43.9918 35.1856 43.512 35.1856 43.1921C35.1856 42.0725 35.6654 41.113 36.3051 40.3133H27.5087L27.5087 40.1534Z" fill="url(#paint0_linear_33_171)"/>
<defs>
<linearGradient id="paint0_linear_33_171" x1="23.9702" y1="3.04858" x2="23.9702" y2="44.9514" gradientUnits="userSpaceOnUse">
<stop stop-color="#3FFF6C"/>
<stop offset="1" stop-color="#009543"/>
</linearGradient>
</defs>
</svg>
