<svg width="48" height="48" viewBox="0 0 48 48" fill="none" xmlns="http://www.w3.org/2000/svg">
<g clip-path="url(#clip0_33_174)">
<path d="M36.3 34.8C36.3 32.7 35.7 30.6 34.5 29.1C32.4 26.7 30 25.5 27 25.5C25.2 25.5 23.4 25.5 21.6 25.5C19.5 25.5 17.7 26.1 15.9 27.3C13.8 28.8 12.6 30.9 12.3 33.3C12 36 12.3 39 12 42C12.3 42 12.9 42.3 13.2 42.3C16.8 43.2 20.1 44.1 23.7 44.1C25.8 44.1 28.2 44.1 30.3 43.8C32.1 43.5 33.9 42.9 35.7 42.3C36 42.3 36 42 36 41.7C36.3 39.3 36.3 36.9 36.3 34.8Z" fill="url(#paint0_linear_33_174)"/>
<path d="M16.8 24.9C17.4 24.6 17.7 24.6 18.3 24.3C16.5 22.5 15.6 20.7 15.6 18.3C13.5 18.3 11.4 18.3 9.3 18.3C8.1 18.3 6.9 18.6 6 18.9C2.7 20.1 0 23.4 0 27C0 29.4 0 31.8 0 34.5C0 34.8 0 34.8 0.3 35.1C2.7 35.7 5.1 36.3 7.5 36.6C8.4 36.6 9.6 36.9 10.5 36.9C10.5 36.3 10.5 35.7 10.5 35.1C10.5 34.2 10.5 33.3 10.8 32.4C11.7 28.8 13.8 26.4 16.8 24.9Z" fill="url(#paint1_linear_33_174)"/>
<path d="M48 27.6C48 26.4 47.7 24.9 47.1 23.7C45.3 20.1 42.6 18.3 38.7 18.3C33 18.3 38.7 18.3 33 18.3C33 20.7 32.1 22.8 30.3 24.3C30.6 24.3 30.9 24.6 30.9 24.6C32.4 25.2 33.9 26.1 35.1 27.3C36.9 29.4 37.8 31.8 37.8 34.5C37.8 35.1 37.8 36 37.8 36.6C39.3 36.3 40.5 36.3 42 36C43.8 35.7 45.9 35.1 47.7 34.2C48 34.2 48 33.9 48 33.6C48 32.1 48 29.7 48 27.6Z" fill="url(#paint2_linear_33_174)"/>
<path d="M24.3 25.2C28.2 25.2 31.5 21.9 31.2 18C31.2 14.1 27.9 11.1 24.3 11.1C20.4 11.1 17.1 14.1 17.1 18C17.4 21.9 20.4 25.2 24.3 25.2Z" fill="url(#paint3_linear_33_174)"/>
<path d="M33 17.4C33.9 17.7 34.8 18 36 18C39.9 18 43.2 14.7 42.9 10.8C42.9 6.90002 39.6 3.90002 36 3.90002C32.1 3.90002 28.8 6.90002 28.8 10.8C31.2 12 32.7 14.4 33 17.4Z" fill="url(#paint4_linear_33_174)"/>
<path d="M12 18C13.2 18 14.7 17.7 15.6 17.1C15.9 14.7 17.1 12.6 18.9 11.4V11.1C18.9 7.20001 15.6 4.20001 12 4.20001C8.10005 4.20001 4.80005 7.20001 4.80005 11.1C4.80005 14.7 8.10005 18 12 18Z" fill="url(#paint5_linear_33_174)"/>
</g>
<defs>
<linearGradient id="paint0_linear_33_174" x1="24.15" y1="25.5" x2="24.15" y2="44.1" gradientUnits="userSpaceOnUse">
<stop stop-color="#F903A4"/>
<stop offset="1" stop-color="#FFB803"/>
</linearGradient>
<linearGradient id="paint1_linear_33_174" x1="9.15" y1="18.3" x2="9.15" y2="36.9" gradientUnits="userSpaceOnUse">
<stop stop-color="#F903A4"/>
<stop offset="1" stop-color="#FFB803"/>
</linearGradient>
<linearGradient id="paint2_linear_33_174" x1="39.15" y1="18.3" x2="39.15" y2="36.6" gradientUnits="userSpaceOnUse">
<stop stop-color="#F903A4"/>
<stop offset="1" stop-color="#FFB803"/>
</linearGradient>
<linearGradient id="paint3_linear_33_174" x1="24.1595" y1="11.1" x2="24.1595" y2="25.2" gradientUnits="userSpaceOnUse">
<stop stop-color="#F903A4"/>
<stop offset="1" stop-color="#FFB803"/>
</linearGradient>
<linearGradient id="paint4_linear_33_174" x1="35.8595" y1="3.90002" x2="35.8595" y2="18" gradientUnits="userSpaceOnUse">
<stop stop-color="#F903A4"/>
<stop offset="1" stop-color="#FFB803"/>
</linearGradient>
<linearGradient id="paint5_linear_33_174" x1="11.85" y1="4.20001" x2="11.85" y2="18" gradientUnits="userSpaceOnUse">
<stop stop-color="#F903A4"/>
<stop offset="1" stop-color="#FFB803"/>
</linearGradient>
<clipPath id="clip0_33_174">
<rect width="48" height="48" fill="white"/>
</clipPath>
</defs>
</svg>
