<svg width="40" height="40" viewBox="0 0 40 40" fill="none" xmlns="http://www.w3.org/2000/svg">
<path d="M4.96009 24.764C4.27988 24.764 3.63508 24.635 3.02532 24.377C2.41556 24.1192 1.88789 23.7674 1.44233 23.3217C0.996758 22.8762 0.644983 22.3486 0.387002 21.7388C0.129017 21.129 4.26173e-06 20.4843 4.26173e-06 19.8041C4.26173e-06 19.1241 0.129017 18.485 0.387002 17.8871C0.644987 17.289 0.996763 16.7672 1.44233 16.3217C1.8879 15.8761 2.41556 15.5244 3.02532 15.2664C3.63508 15.0084 4.27989 14.8794 4.96009 14.8794C5.10076 14.8794 5.22977 14.8854 5.34709 14.8971C5.46423 14.9088 5.58154 14.9146 5.69886 14.9146L12.5585 6.61302C12.4412 6.37857 12.3649 6.1206 12.3297 5.83928C12.2947 5.55774 12.2769 5.26472 12.2769 4.95988C12.2769 4.2797 12.406 3.63492 12.6639 3.02519C12.9219 2.41545 13.2737 1.88781 13.7193 1.44226C14.1648 0.996715 14.6925 0.644952 15.3023 0.38698C15.912 0.129008 16.557 0 17.237 0C17.9171 0 18.562 0.129008 19.1718 0.38698C19.7816 0.644952 20.3092 0.996714 20.7548 1.44226C21.2004 1.88781 21.5521 2.41545 21.8101 3.02519C22.0681 3.63492 22.1971 4.27988 22.1971 4.95988C22.1971 5.52274 22.1092 6.05619 21.9333 6.5603C21.7574 7.0646 21.5169 7.53934 21.212 7.98507L27.1572 21.2816L30.5693 15.1962C30.3113 14.7975 30.1004 14.3578 29.9362 13.8771C29.772 13.3963 29.6899 12.8862 29.6899 12.3469C29.6899 11.6667 29.8189 11.0219 30.0769 10.4122C30.3349 9.80244 30.6866 9.2748 31.1322 8.82925C31.5778 8.3837 32.1054 8.03194 32.7152 7.77397C33.325 7.516 33.9699 7.38699 34.65 7.38699C35.33 7.38699 35.975 7.516 36.5847 7.77397C37.1945 8.03194 37.728 8.3837 38.1852 8.82925C38.6427 9.2748 39.0003 9.80244 39.2583 10.4122C39.5163 11.0219 39.6453 11.6669 39.6453 12.3469C39.6453 13.0504 39.5163 13.707 39.2583 14.3168C39.0003 14.9263 38.6427 15.46 38.1852 15.9172C37.728 16.3744 37.1945 16.7322 36.5847 16.99C35.9748 17.248 35.33 17.377 34.65 17.377H33.8057L30.4639 23.4626C30.9798 23.9315 31.3904 24.4826 31.6951 25.1157C31.9999 25.749 32.1523 26.4407 32.1523 27.1911C32.1523 27.8712 32.0233 28.5162 31.7653 29.1258C31.5075 29.7355 31.1497 30.269 30.6925 30.7264C30.2353 31.1836 29.7076 31.5412 29.1095 31.7992C28.5114 32.0572 27.8608 32.1862 27.1572 32.1862C26.4537 32.1862 25.8028 32.0572 25.2047 31.7992C24.6068 31.5412 24.085 31.1836 23.6395 30.7264C23.1937 30.269 22.8419 29.7355 22.5841 29.1258C22.3261 28.5162 22.1971 27.8712 22.1971 27.1911C22.1971 26.4407 22.3436 25.749 22.6368 25.1157C22.9299 24.4826 23.3346 23.9315 23.8503 23.4626L17.7999 9.91975C17.5653 9.96663 17.3777 9.98997 17.237 9.98997C16.8617 9.98997 16.5041 9.9431 16.1642 9.84931C15.8241 9.75552 15.5015 9.63821 15.1968 9.49755L9.18141 17.0956C9.41586 17.4943 9.6034 17.9223 9.74429 18.3795C9.88496 18.8367 9.95518 19.3117 9.95518 19.8041C9.95518 20.4842 9.82622 21.1292 9.56841 21.7388C9.31038 22.3485 8.9528 22.8762 8.49536 23.3217C8.03814 23.7674 7.51047 24.1192 6.91236 24.377C6.31448 24.635 5.66364 24.764 4.96009 24.764ZM0 34.7189H39.6453V39.5027H1.14739e-06L0 34.7189Z" fill="url(#paint0_linear_32_686)"/>
<defs>
<linearGradient id="paint0_linear_32_686" x1="19.8226" y1="0" x2="19.8226" y2="39.5027" gradientUnits="userSpaceOnUse">
<stop stop-color="#3FFF6C"/>
<stop offset="1" stop-color="#009543"/>
</linearGradient>
</defs>
</svg>
