<svg width="52" height="52" viewBox="0 0 52 52" fill="none" xmlns="http://www.w3.org/2000/svg">
<path d="M42.1538 5.5C43.4391 5.5 44.6718 6.01058 45.5806 6.91941C46.4894 7.82824 47 9.06087 47 10.3462V42.6539C47 43.9391 46.4894 45.1718 45.5806 46.0806C44.6718 46.9894 43.4391 47.5 42.1538 47.5H9.84615C8.56087 47.5 7.32824 46.9894 6.41941 46.0806C5.51058 45.1718 5 43.9391 5 42.6539V10.3462C5 9.06087 5.51058 7.82824 6.41941 6.91941C7.32824 6.01058 8.56087 5.5 9.84615 5.5H42.1538ZM16.3335 28.1154C16.288 28.1147 16.2424 28.1159 16.1969 28.1191L16.1046 28.1283C15.8381 28.1617 15.5842 28.2613 15.3662 28.4182L15.3292 28.444L15.2868 28.4809C15.2504 28.5102 15.2153 28.541 15.1815 28.5732L15.1649 28.588C15.0557 28.6975 14.9625 28.8218 14.888 28.9572C14.7589 29.1946 14.6916 29.4606 14.6923 29.7308L14.696 29.62C14.671 29.9948 14.7767 30.3667 14.9951 30.6723L15.0209 30.7092L15.0578 30.7517C15.0871 30.7881 15.1179 30.8232 15.1502 30.8569L15.1649 30.8735L22.7046 38.4114L22.8708 38.5554C23.1971 38.799 23.6033 38.9103 24.0082 38.8672C24.4131 38.824 24.7868 38.6296 25.0544 38.3227C25.3221 38.0159 25.464 37.6193 25.4517 37.2122C25.4395 36.8052 25.274 36.4179 24.9883 36.1277L20.2068 31.3462H35.6923L35.8954 31.3332C36.3028 31.2814 36.6751 31.0763 36.9367 30.7598C37.1983 30.4432 37.3295 30.0389 37.3036 29.629C37.2778 29.2192 37.0968 28.8346 36.7975 28.5534C36.4981 28.2722 36.103 28.1156 35.6923 28.1154H16.3335ZM29.1311 14.4446C28.805 14.1984 28.3977 14.0849 27.9913 14.1269C27.5848 14.169 27.2094 14.3635 26.9407 14.6714C26.672 14.9792 26.5299 15.3774 26.5431 15.7858C26.5562 16.1942 26.7237 16.5824 27.0117 16.8723L31.7932 21.6538H16.3077L16.1046 21.6668C15.6972 21.7186 15.3249 21.9237 15.0633 22.2402C14.8017 22.5568 14.6705 22.9611 14.6964 23.371C14.7222 23.7808 14.9032 24.1654 15.2025 24.4466C15.5019 24.7278 15.897 24.8844 16.3077 24.8846H35.6923L35.8954 24.8717C36.1619 24.8383 36.4158 24.7387 36.6338 24.5818L36.6708 24.556L36.7132 24.5191C36.7496 24.4898 36.7847 24.459 36.8185 24.4268L36.8351 24.412C36.9443 24.3025 37.0375 24.1782 37.112 24.0428C37.2583 23.7758 37.326 23.4727 37.307 23.1688C37.2881 22.8649 37.1833 22.5726 37.0049 22.3258L36.9791 22.2926L36.9422 22.2483C36.9129 22.2119 36.8821 22.1768 36.8498 22.1431L36.8351 22.1265L29.2954 14.5886L29.1311 14.4446Z" fill="#9391A2"/>
</svg>
