<svg width="42" height="42" viewBox="0 0 42 42" fill="none" xmlns="http://www.w3.org/2000/svg">
<path d="M37.1538 0C38.4391 0 39.6718 0.510576 40.5806 1.41941C41.4894 2.32824 42 3.56087 42 4.84616V37.1539C42 38.4391 41.4894 39.6718 40.5806 40.5806C39.6718 41.4894 38.4391 42 37.1538 42H4.84615C3.56087 42 2.32824 41.4894 1.41941 40.5806C0.510575 39.6718 0 38.4391 0 37.1539V4.84616C0 3.56087 0.510575 2.32824 1.41941 1.41941C2.32824 0.510576 3.56087 0 4.84615 0H37.1538ZM11.3335 22.6154C11.288 22.6147 11.2424 22.6159 11.1969 22.6191L11.1046 22.6283C10.8381 22.6617 10.5842 22.7613 10.3662 22.9182L10.3292 22.944L10.2868 22.9809C10.2504 23.0102 10.2153 23.041 10.1815 23.0732L10.1649 23.088C10.0557 23.1975 9.96252 23.3218 9.888 23.4572C9.75889 23.6946 9.69159 23.9606 9.69231 24.2308L9.696 24.12C9.67104 24.4948 9.77673 24.8667 9.99508 25.1723L10.0209 25.2092L10.0578 25.2517C10.0871 25.2881 10.1179 25.3232 10.1502 25.3569L10.1649 25.3735L17.7046 32.9114L17.8708 33.0554C18.1971 33.299 18.6033 33.4103 19.0082 33.3672C19.4131 33.324 19.7868 33.1296 20.0544 32.8227C20.3221 32.5159 20.464 32.1193 20.4517 31.7122C20.4395 31.3052 20.274 30.9179 19.9883 30.6277L15.2068 25.8462H30.6923L30.8954 25.8332C31.3028 25.7814 31.6751 25.5763 31.9367 25.2598C32.1983 24.9432 32.3295 24.5389 32.3036 24.129C32.2778 23.7192 32.0968 23.3346 31.7975 23.0534C31.4981 22.7722 31.103 22.6156 30.6923 22.6154H11.3335ZM24.1311 8.94462C23.805 8.69837 23.3977 8.58485 22.9913 8.62693C22.5848 8.669 22.2094 8.86355 21.9407 9.17136C21.672 9.47918 21.5299 9.87741 21.5431 10.2858C21.5562 10.6942 21.7237 11.0824 22.0117 11.3723L26.7932 16.1538H11.3077L11.1046 16.1668C10.6972 16.2186 10.3249 16.4237 10.0633 16.7402C9.8017 17.0568 9.67049 17.4611 9.69636 17.871C9.72222 18.2808 9.90322 18.6654 10.2025 18.9466C10.5019 19.2278 10.897 19.3844 11.3077 19.3846H30.6923L30.8954 19.3717C31.1619 19.3383 31.4158 19.2387 31.6338 19.0818L31.6708 19.056L31.7132 19.0191C31.7496 18.9898 31.7847 18.959 31.8185 18.9268L31.8351 18.912C31.9443 18.8025 32.0375 18.6782 32.112 18.5428C32.2583 18.2758 32.326 17.9727 32.307 17.6688C32.2881 17.3649 32.1833 17.0726 32.0049 16.8258L31.9791 16.7926L31.9422 16.7483C31.9129 16.7119 31.8821 16.6768 31.8498 16.6431L31.8351 16.6265L24.2954 9.08862L24.1311 8.94462Z" fill="url(#paint0_linear_86_352)"/>
<defs>
<linearGradient id="paint0_linear_86_352" x1="21" y1="0" x2="21" y2="42" gradientUnits="userSpaceOnUse">
<stop stop-color="#3FFF6C"/>
<stop offset="1" stop-color="#009543"/>
</linearGradient>
</defs>
</svg>
