<svg width="52" height="52" viewBox="0 0 52 52" fill="none" xmlns="http://www.w3.org/2000/svg">
<path d="M40.3939 49.5C40.2972 49.5 40.2194 49.4973 40.1637 49.4945H10.7177C8.7452 49.4945 7.60978 48.6589 7.00466 47.9579C5.6786 46.4218 5.78511 44.3391 5.84491 43.7613V25.9476H8.99761V43.9784L8.98274 44.0717C8.94525 44.3889 8.9417 45.3737 9.39106 45.8856C9.48614 45.9939 9.77545 46.3235 10.7178 46.3235H40.2895L40.3265 46.3276C40.4325 46.3313 41.4257 46.3491 42.0504 45.7549C42.4669 45.3589 42.678 44.7039 42.678 43.8083V25.9339H45.8307V43.8083C45.8307 46.0811 44.9318 47.3941 44.1778 48.0954C42.8214 49.3569 41.1031 49.5 40.3939 49.5ZM7.42121 27.4357H2.57644C1.92171 27.4357 1.33521 27.0287 1.10275 26.4131C0.870336 25.7974 1.04039 25.1014 1.53004 24.6643L24.792 3.89968C25.3841 3.37111 26.2741 3.36625 26.872 3.88843L50.4572 24.4896C50.9476 24.918 51.1266 25.6051 50.908 26.2203C50.6894 26.8354 50.1181 27.2528 49.4688 27.2716L44.2994 27.4208C44.284 27.4213 44.2687 27.4215 44.2533 27.4215C43.4037 27.4215 42.703 26.7413 42.6785 25.8815C42.6535 25.0062 43.3387 24.2763 44.2089 24.2512L45.3385 24.2186L25.8497 7.19525L6.72747 24.2646H7.42121C8.2918 24.2646 8.99757 24.9745 8.99757 25.8502C8.99757 26.7258 8.2918 27.4357 7.42121 27.4357ZM20.5567 47.924C19.8221 47.924 19.2267 47.3251 19.2267 46.5862V35.3962C19.2268 35.1551 19.2875 34.1625 20.2129 33.2164C21.3361 32.0683 23.2404 31.4861 25.8731 31.4861C28.4661 31.4861 30.3497 32.0762 31.4717 33.2402C32.4187 34.2226 32.4797 35.2571 32.4779 35.5314V46.5433C32.4779 47.2821 31.8824 47.8811 31.1478 47.8811C30.4132 47.8811 29.8178 47.2821 29.8178 46.5433V35.5472C29.809 35.4894 29.7533 35.2448 29.4229 34.9754C29.05 34.6715 28.093 34.1616 25.873 34.1616C23.298 34.1616 22.383 34.8129 22.1091 35.0929C21.9746 35.2304 21.9181 35.3473 21.8944 35.4212C21.8908 35.4324 21.8884 35.4416 21.8867 35.4484V46.5862C21.8868 47.3251 21.2913 47.924 20.5567 47.924ZM20.9015 37.2614L20.4582 47.4681L8.73407 46.824L7.89663 34.2391L8.14294 26.0143L4.6454 24.8747L25.7784 5.60087L46.6158 23.8837L44.4976 25.9152L43.6109 44.2476L42.7734 47.0718L31.739 47.4681L31.5419 40.0856L30.8523 35.1309L29.473 33.9913L26.7636 33.5454L23.4139 33.8427L21.3449 34.14L20.9015 37.2614Z" fill="url(#paint0_linear_25_571)"/>
<defs>
<linearGradient id="paint0_linear_25_571" x1="26" y1="3.5" x2="26" y2="49.5" gradientUnits="userSpaceOnUse">
<stop stop-color="#3FFF6C"/>
<stop offset="1" stop-color="#009543"/>
</linearGradient>
</defs>
</svg>
