<svg width="50" height="46" viewBox="0 0 50 46" fill="none" xmlns="http://www.w3.org/2000/svg">
<path d="M39.3939 46C39.2972 46 39.2194 45.9973 39.1637 45.9945H9.71771C7.7452 45.9945 6.60978 45.1589 6.00466 44.4579C4.6786 42.9218 4.78511 40.8391 4.84491 40.2613V22.4476H7.99761V40.4784L7.98274 40.5717C7.94525 40.8889 7.9417 41.8737 8.39106 42.3856C8.48614 42.4939 8.77545 42.8235 9.71776 42.8235H39.2895L39.3265 42.8276C39.4325 42.8313 40.4257 42.8491 41.0504 42.2549C41.4669 41.8589 41.678 41.2039 41.678 40.3083V22.4339H44.8307V40.3083C44.8307 42.5811 43.9318 43.8941 43.1778 44.5954C41.8214 45.8569 40.1031 46 39.3939 46ZM6.42121 23.9357H1.57644C0.921714 23.9357 0.335212 23.5287 0.10275 22.9131C-0.129664 22.2974 0.0403851 21.6014 0.530039 21.1643L23.792 0.399676C24.3841 -0.128892 25.2741 -0.133748 25.872 0.388429L49.4572 20.9896C49.9476 21.418 50.1266 22.1051 49.908 22.7203C49.6894 23.3354 49.1181 23.7528 48.4688 23.7716L43.2994 23.9208C43.284 23.9213 43.2687 23.9215 43.2533 23.9215C42.4037 23.9215 41.703 23.2413 41.6785 22.3815C41.6535 21.5062 42.3387 20.7763 43.2089 20.7512L44.3385 20.7186L24.8497 3.69525L5.72747 20.7646H6.42121C7.2918 20.7646 7.99757 21.4745 7.99757 22.3502C7.99757 23.2258 7.2918 23.9357 6.42121 23.9357ZM19.5567 44.424C18.8221 44.424 18.2267 43.8251 18.2267 43.0862V31.8962C18.2268 31.6551 18.2875 30.6625 19.2129 29.7164C20.3361 28.5683 22.2404 27.9861 24.8731 27.9861C27.4661 27.9861 29.3497 28.5762 30.4717 29.7402C31.4187 30.7226 31.4797 31.7571 31.4779 32.0314V43.0433C31.4779 43.7821 30.8824 44.3811 30.1478 44.3811C29.4132 44.3811 28.8178 43.7821 28.8178 43.0433V32.0472C28.809 31.9894 28.7533 31.7448 28.4229 31.4754C28.05 31.1715 27.093 30.6616 24.873 30.6616C22.298 30.6616 21.383 31.3129 21.1091 31.5929C20.9746 31.7304 20.9181 31.8473 20.8944 31.9212C20.8908 31.9324 20.8884 31.9416 20.8867 31.9484V43.0862C20.8868 43.8251 20.2913 44.424 19.5567 44.424ZM19.9015 33.7614L19.4582 43.9681L7.73407 43.324L6.89663 30.7391L7.14294 22.5143L3.6454 21.3747L24.7784 2.10087L45.6158 20.3837L43.4976 22.4152L42.6109 40.7476L41.7734 43.5718L30.739 43.9681L30.5419 36.5856L29.8523 31.6309L28.473 30.4913L25.7636 30.0454L22.4139 30.3427L20.3449 30.64L19.9015 33.7614Z" fill="#9391A2"/>
</svg>
