<svg width="49" height="40" viewBox="0 0 49 40" fill="none" xmlns="http://www.w3.org/2000/svg">
<path d="M48.4657 31.085C48.4657 33.5117 47.5124 34.0317 43.7857 34.0317C42.8324 24.6717 38.1524 20.165 33.2991 17.825C36.5057 13.4917 36.6791 7.16503 33.6457 2.48503C37.3724 1.35837 41.2724 3.95837 42.2257 7.94503C43.0057 11.4984 41.4457 15.3984 38.1524 16.8717C44.2191 18.4317 48.4657 24.325 48.4657 31.085ZM28.5324 18.605C34.5991 19.905 41.5324 24.1517 41.5324 36.285C41.5324 39.4917 37.4591 39.4917 24.3724 39.4917C11.1124 39.4917 7.21239 39.4917 7.21239 36.285C7.21239 24.325 14.1457 19.9917 20.1257 18.6917C15.4457 16.0917 13.7991 10.1117 16.0524 5.25837C18.3057 0.405034 23.9391 -1.41497 28.3591 1.18503C32.7791 3.78503 34.5124 9.76503 32.0857 14.445C31.3057 16.3517 30.0057 17.6517 28.5324 18.605ZM15.1857 17.825C10.3324 20.0784 5.65239 24.7584 4.69906 34.0317C0.972391 34.0317 0.0190575 33.5117 0.0190575 31.085C-0.327609 24.325 4.09239 18.345 10.2457 16.8717C6.69239 15.0517 5.04572 10.7184 6.69239 6.81837C8.16572 3.43837 11.5457 1.61837 14.9257 2.5717C11.7191 7.16503 11.8924 13.3184 15.1857 17.825Z" fill="url(#paint0_linear_35_188)"/>
<defs>
<linearGradient id="paint0_linear_35_188" x1="24.2329" y1="0" x2="24.2329" y2="39.4917" gradientUnits="userSpaceOnUse">
<stop stop-color="#3FFF6C"/>
<stop offset="1" stop-color="#009543"/>
</linearGradient>
</defs>
</svg>
