<svg width="52" height="52" viewBox="0 0 52 52" fill="none" xmlns="http://www.w3.org/2000/svg">
<path d="M50.2666 37.3531C50.2666 39.7798 49.3133 40.2998 45.5866 40.2998C44.6333 30.9398 39.9533 26.4331 35.1 24.0931C38.3066 19.7598 38.48 13.4331 35.4466 8.7531C39.1733 7.62643 43.0733 10.2264 44.0266 14.2131C44.8066 17.7664 43.2466 21.6664 39.9533 23.1398C46.02 24.6998 50.2666 30.5931 50.2666 37.3531ZM30.3333 24.8731C36.4 26.1731 43.3333 30.4198 43.3333 42.5531C43.3333 45.7598 39.26 45.7598 26.1733 45.7598C12.9133 45.7598 9.01329 45.7598 9.01329 42.5531C9.01329 30.5931 15.9466 26.2598 21.9266 24.9598C17.2466 22.3598 15.6 16.3798 17.8533 11.5264C20.1066 6.6731 25.74 4.8531 30.16 7.4531C34.58 10.0531 36.3133 16.0331 33.8866 20.7131C33.1066 22.6198 31.8066 23.9198 30.3333 24.8731ZM16.9866 24.0931C12.1333 26.3464 7.45329 31.0264 6.49996 40.2998C2.77329 40.2998 1.81996 39.7798 1.81996 37.3531C1.47329 30.5931 5.89329 24.6131 12.0466 23.1398C8.49329 21.3198 6.84663 16.9864 8.49329 13.0864C9.96663 9.70643 13.3466 7.88643 16.7266 8.83977C13.52 13.4331 13.6933 19.5864 16.9866 24.0931Z" fill="#9391A2"/>
</svg>
