<svg width="52" height="52" viewBox="0 0 52 52" fill="none" xmlns="http://www.w3.org/2000/svg">
<path d="M46.4621 19.9418C46.4621 17.9398 44.8501 16.3278 42.8481 16.3278H9.30809C7.30609 16.3278 5.69409 17.9398 5.69409 19.9418V42.0158C5.69409 44.0178 7.30609 45.6298 9.30809 45.6298H42.8481C44.8501 45.6298 46.4621 44.0178 46.4621 42.0158V39.2598C46.4621 38.2198 45.6041 37.3618 44.5641 37.3618H35.7241C32.2921 37.3618 29.5101 34.5278 29.5101 31.0438C29.5101 27.5598 32.2921 24.7258 35.7241 24.7258H44.5641C45.6041 24.7258 46.4621 23.8678 46.4621 22.8278V19.9418ZM40.3781 7.56582C40.0141 6.31782 38.7921 6.13582 38.0641 6.31782L9.12609 14.6898H42.4061L40.3781 7.56582Z" fill="#9391A2"/>
<path d="M32.006 30.9924C32.006 33.0464 33.644 34.7104 35.672 34.7104C37.7 34.7104 39.338 33.0464 39.338 30.9924C39.338 28.9384 37.7 27.2744 35.672 27.2744C33.644 27.2744 32.006 28.9384 32.006 30.9924Z" fill="#9391A2"/>
</svg>
