<svg width="52" height="52" viewBox="0 0 52 52" fill="none" xmlns="http://www.w3.org/2000/svg">
<path d="M46.4621 19.9418C46.4621 17.9398 44.8501 16.3278 42.8481 16.3278H9.30809C7.30609 16.3278 5.69409 17.9398 5.69409 19.9418V42.0158C5.69409 44.0178 7.30609 45.6298 9.30809 45.6298H42.8481C44.8501 45.6298 46.4621 44.0178 46.4621 42.0158V39.2598C46.4621 38.2198 45.6041 37.3618 44.5641 37.3618H35.7241C32.2921 37.3618 29.5101 34.5278 29.5101 31.0438C29.5101 27.5598 32.2921 24.7258 35.7241 24.7258H44.5641C45.6041 24.7258 46.4621 23.8678 46.4621 22.8278V19.9418ZM40.3781 7.56582C40.0141 6.31782 38.7921 6.13582 38.0641 6.31782L9.12609 14.6898H42.4061L40.3781 7.56582Z" fill="url(#paint0_linear_34_267)"/>
<path d="M32.0059 30.9924C32.0059 33.0464 33.6439 34.7104 35.6719 34.7104C37.6999 34.7104 39.3379 33.0464 39.3379 30.9924C39.3379 28.9384 37.6999 27.2744 35.6719 27.2744C33.6439 27.2744 32.0059 28.9384 32.0059 30.9924Z" fill="url(#paint1_linear_34_267)"/>
<defs>
<linearGradient id="paint0_linear_34_267" x1="26.0781" y1="6.25781" x2="26.0781" y2="45.6298" gradientUnits="userSpaceOnUse">
<stop stop-color="#3FFF6C"/>
<stop offset="1" stop-color="#009543"/>
</linearGradient>
<linearGradient id="paint1_linear_34_267" x1="35.6719" y1="27.2744" x2="35.6719" y2="34.7104" gradientUnits="userSpaceOnUse">
<stop stop-color="#3FFF6C"/>
<stop offset="1" stop-color="#009543"/>
</linearGradient>
</defs>
</svg>
