<svg width="52" height="52" viewBox="0 0 52 52" fill="none" xmlns="http://www.w3.org/2000/svg">
<path d="M25.9999 2.00195C29.7423 2.00195 32.8987 4.90701 34.8583 10.5166C40.9493 9.21854 45.2488 10.4121 47.1073 13.6729C48.9899 16.9713 47.8994 21.3001 43.6864 25.9912C47.858 30.6761 48.9932 35.0281 47.1385 38.2744C45.2526 41.5797 41.0005 42.7984 34.8905 41.4756C32.975 47.0954 29.8839 50.0059 25.9999 50.0059C22.3081 50.0058 19.1529 47.0483 17.1796 41.458C11.0319 42.8074 6.75433 41.5895 4.86121 38.2715C3.00687 35.0234 4.14104 30.6757 8.31433 25.9912C4.09816 21.2976 3.00643 16.9673 4.88953 13.6699L4.8866 13.6719L4.99988 13.4775C6.9247 10.3562 11.1862 9.24118 17.1805 10.5225L17.1874 10.5234C19.1619 4.94837 22.3152 1.99909 25.9999 1.99902V2.00195ZM25.9969 38.3086C24.1495 39.1825 22.3978 39.8968 20.7489 40.4541C21.0622 41.2866 21.407 42.0416 21.7831 42.7188C23.149 45.1825 24.7073 46.3085 25.9999 46.3086C27.2925 46.3086 28.8677 45.2363 30.2196 42.8232C30.6114 42.1254 30.9683 41.34 31.2919 40.4678C29.6308 39.9075 27.8631 39.1906 25.9969 38.3086ZM10.8973 28.5576C10.2024 29.3662 9.61956 30.1607 9.14539 30.9365C7.63292 33.4085 7.42699 35.395 8.04773 36.4844C8.67989 37.5935 10.3984 38.4005 13.1923 38.3271C14.1115 38.3038 15.1082 38.1853 16.1815 37.9697C15.8404 36.4695 15.5666 34.8357 15.369 33.0723L15.2645 32.0596L15.2616 32.0234L14.5448 31.5088C13.1978 30.5193 11.9831 29.5328 10.8973 28.5576ZM41.1014 28.5586C40.0152 29.5341 38.8009 30.522 37.453 31.5117L36.746 32.0205C36.6966 32.5736 36.6412 33.1144 36.578 33.6426L36.451 34.6191C36.2853 35.8046 36.0845 36.9234 35.8544 37.9756C36.9132 38.1868 37.8966 38.3035 38.8046 38.3271C41.6014 38.4005 43.3199 37.5935 43.955 36.4844C44.573 35.395 44.3669 33.4087 42.8544 30.9365C42.3801 30.1611 41.7965 29.3674 41.1014 28.5586ZM32.7118 34.6748C32.2844 34.9355 31.8545 35.1919 31.4218 35.4434L30.4423 36.002L30.1229 36.1807C30.8693 36.4861 31.5915 36.7574 32.2889 36.9961C32.4484 36.2633 32.5888 35.4896 32.7118 34.6748ZM19.3036 34.6807C19.4291 35.49 19.5738 36.2595 19.7362 36.9893C20.4265 36.7524 21.1408 36.4838 21.8788 36.1816L21.5575 36.002L20.578 35.4404C20.1442 35.1877 19.7198 34.9338 19.3036 34.6807ZM25.9999 17.6631C24.8459 18.251 23.647 18.9069 22.4042 19.6328C21.1259 20.3797 19.9346 21.1231 18.828 21.8604C18.7485 23.1638 18.7069 24.5436 18.7069 26C18.7069 27.4313 18.7463 28.7886 18.8231 30.0723C19.9362 30.8116 21.1365 31.5581 22.4247 32.3105C23.6619 33.0324 24.8543 33.6841 25.9999 34.2705C27.1448 33.6839 28.3368 33.0327 29.5731 32.3105C30.8632 31.5573 32.0642 30.8094 33.1786 30.0693C33.253 28.7877 33.2928 27.4316 33.2928 26C33.2928 24.5422 33.2517 23.1626 33.1747 21.8604C32.0675 21.1228 30.875 20.3795 29.5956 19.6328C28.3527 18.9068 27.1538 18.2511 25.9999 17.6631ZM36.9852 24.6426C36.9927 25.0895 36.9984 25.5431 36.9979 26.0029V26.5957C36.9961 26.8331 36.9921 27.0688 36.9882 27.3027C37.5434 26.8578 38.0657 26.416 38.5565 25.9785C38.0649 25.5363 37.541 25.0912 36.9852 24.6426ZM15.0106 24.6455C14.456 25.0931 13.934 25.5383 13.4432 25.9795C13.9331 26.4161 14.4547 26.8568 15.0087 27.3008C15.0013 26.8736 14.9989 26.441 14.9989 26.0029C14.9981 25.5505 15.002 25.0978 15.0106 24.6455ZM13.3055 13.6719C10.4551 13.5872 8.67958 14.3866 8.06433 15.4619C7.4239 16.5852 7.59614 18.5245 9.06921 20.957C9.55322 21.7559 10.1581 22.5751 10.8856 23.4131L11.3925 22.96C12.5479 21.9462 13.8405 20.9276 15.2684 19.9072L15.369 18.9326C15.5676 17.1603 15.8427 15.5191 16.1864 14.0127C15.1587 13.8116 14.199 13.6992 13.3085 13.6719H13.3055ZM38.6942 13.6729C37.8109 13.7 36.8596 13.81 35.8417 14.0078C36.0783 15.0671 36.284 16.194 36.451 17.3887L36.578 18.3652C36.6389 18.8689 36.6912 19.3843 36.7391 19.9102C38.1658 20.9296 39.4582 21.9471 40.6141 22.96L41.1141 23.4111C41.8407 22.5738 42.4446 21.7553 42.9276 20.957C44.4008 18.5243 44.5731 16.5852 43.9325 15.4619C43.3172 14.3838 41.5419 13.5882 38.6942 13.6729ZM32.2811 14.9688C31.5934 15.2005 30.8827 15.4637 30.1493 15.7598C30.7614 16.1013 31.3688 16.4509 31.9716 16.8076L32.701 17.25C32.5787 16.4497 32.4388 15.6894 32.2811 14.9688ZM19.744 14.9766C19.5838 15.693 19.4409 16.4478 19.3163 17.2412L20.0311 16.8076L20.5507 16.5029L20.5419 16.5059L21.0331 16.2207C21.3078 16.0644 21.5801 15.9107 21.8505 15.7598C21.126 15.4673 20.4239 15.2062 19.744 14.9766ZM25.9999 5.69043C24.7468 5.6905 23.149 6.8175 21.7831 9.28125C21.4128 9.94866 21.0721 10.6911 20.7626 11.5088L21.4677 11.75L22.2997 12.0547C23.5521 12.53 24.7867 13.055 26.0009 13.624C27.2771 13.026 28.5089 12.5048 29.6942 12.0576L30.5272 11.7559L31.2802 11.498C30.9599 10.6393 30.6063 9.8656 30.2196 9.17676C28.8677 6.76655 27.2925 5.69043 25.9999 5.69043Z" fill="url(#paint0_linear_32_562)"/>
<defs>
<linearGradient id="paint0_linear_32_562" x1="26" y1="1.99902" x2="26" y2="50.0059" gradientUnits="userSpaceOnUse">
<stop stop-color="#3FFF6C"/>
<stop offset="1" stop-color="#009543"/>
</linearGradient>
</defs>
</svg>
