<svg width="70" height="70" viewBox="0 0 70 70" fill="none" xmlns="http://www.w3.org/2000/svg">
<g id="Frame">
<path id="Vector" d="M21.8068 33.2143C21.8962 29.5536 22.254 26.0714 22.7907 22.9464C20.3757 21.875 18.0501 20.4464 15.9034 18.75C12.5939 22.6786 10.3578 27.6786 10 33.2143H21.8068ZM34.9553 21.875C37.7281 21.875 40.4114 21.4286 42.9159 20.625C41.7531 15.8036 40.0537 12.1429 38.1753 10.1786C37.102 10.0893 36.0286 10 34.9553 10C33.8819 10 32.8086 10.0893 31.7352 10.1786C29.8569 12.1429 28.1574 15.8036 26.9946 20.625C29.4991 21.4286 32.1825 21.875 34.9553 21.875ZM21.8068 36.7857H10C10.3578 42.3214 12.5939 47.3214 15.9928 51.25C18.1395 49.5536 20.3757 48.125 22.8801 47.0536C22.254 43.9286 21.8962 40.4464 21.8068 36.7857ZM48.1038 36.7857C48.0143 40.4464 47.6565 43.9286 47.1199 47.0536C49.5349 48.125 51.8605 49.5536 54.0072 51.25C57.4061 47.3214 59.5528 42.3214 60 36.7857H48.1038ZM34.9553 48.125C32.1825 48.125 29.4991 48.5714 26.9946 49.375C28.1574 54.1964 29.8569 57.8571 31.7352 59.8214C32.8086 60 33.8819 60 34.9553 60C36.0286 60 37.102 59.9107 38.1753 59.8214C40.0537 57.8571 41.7531 54.1964 42.9159 49.375C40.4114 48.5714 37.7281 48.125 34.9553 48.125ZM43.6315 24.1964C40.8587 25 37.907 25.4464 34.9553 25.4464C32.0036 25.4464 29.0519 25 26.2791 24.1964C25.8318 26.9643 25.4741 30 25.4741 33.2143H44.5259C44.4365 30 44.0787 26.9643 43.6315 24.1964ZM23.5957 50.625C21.8068 51.5179 20.1073 52.5893 18.4973 53.8393C20.8229 55.8929 23.5957 57.5 26.5474 58.5714C25.3846 56.3393 24.4007 53.6607 23.5957 50.625ZM46.3148 50.625C45.5098 53.6607 44.5259 56.3393 43.3632 58.5714C46.4043 57.5 49.0877 55.8929 51.4132 53.8393C49.8032 52.5893 48.1038 51.5179 46.3148 50.625ZM47.1199 22.9464C47.6565 26.0714 48.0143 29.5536 48.1038 33.2143H59.9106C59.5528 27.6786 57.3166 22.6786 53.9177 18.75C51.8605 20.4464 49.5349 21.875 47.1199 22.9464ZM23.5957 19.375C24.4007 16.3393 25.3846 13.6607 26.5474 11.4286C23.5063 12.5 20.8229 14.1071 18.4973 16.1607C20.1073 17.4107 21.8068 18.4821 23.5957 19.375ZM51.4132 16.1607C49.0877 14.1071 46.3148 12.5 43.3632 11.4286C44.5259 13.6607 45.5993 16.25 46.3148 19.375C48.1038 18.4821 49.8032 17.4107 51.4132 16.1607ZM26.2791 45.8036C29.0519 45 32.0036 44.5536 34.9553 44.5536C37.907 44.5536 40.8587 45 43.6315 45.8036C44.0787 43.0357 44.4365 40 44.4365 36.7857H25.3846C25.4741 40 25.8318 43.0357 26.2791 45.8036Z" fill="white"/>
</g>
</svg>
