<svg width="50" height="50" viewBox="0 0 50 50" fill="none" xmlns="http://www.w3.org/2000/svg">
<path d="M11.785 9.475C7.26167 11.0917 5 13.35 5 16.25C5 19.15 7.26167 21.4083 11.785 23.025C15.4733 24.3417 19.8783 25 25 25C30.1217 25 34.5267 24.3417 38.215 23.025C42.7383 21.4083 45 19.15 45 16.25C45 13.35 42.7383 11.0917 38.215 9.475C34.5267 8.15833 30.1217 7.5 25 7.5C19.8783 7.5 15.4733 8.15833 11.785 9.475ZM10.4875 16.775C10.1625 16.4967 10 16.3217 10 16.25C10 16.1767 10.1625 16.0017 10.4875 15.725C11.1425 15.175 12.1358 14.6617 13.4675 14.185C16.6125 13.0617 20.4567 12.5 25 12.5C29.5433 12.5 33.3875 13.0617 36.5325 14.185C37.8642 14.66 38.8575 15.1742 39.5125 15.7275C39.8375 16.0025 40 16.1767 40 16.25C40 16.3233 39.8375 16.4983 39.5125 16.775C38.8575 17.325 37.8642 17.8383 36.5325 18.315C33.3875 19.4383 29.5433 20 25 20C20.4567 20 16.6125 19.4383 13.4675 18.315C12.1358 17.84 11.1425 17.3258 10.4875 16.7725V16.775ZM10.4875 24.2725C10.1625 23.9975 10 23.8233 10 23.75H5C5 26.65 7.26167 28.9083 11.785 30.525C15.4733 31.8417 19.8783 32.5 25 32.5C30.1217 32.5 34.5267 31.8417 38.215 30.525C42.7383 28.9083 45 26.65 45 23.75H40C40 23.8233 39.8375 23.9975 39.5125 24.2725C38.8575 24.8258 37.8642 25.34 36.5325 25.815C33.3875 26.9383 29.5433 27.5 25 27.5C20.4567 27.5 16.6125 26.9383 13.4675 25.815C12.1358 25.34 11.1425 24.8258 10.4875 24.2725ZM40 32.5L39.975 32.5175L44.3125 35.0025C44.7708 34.2008 45 33.3667 45 32.5H40ZM25 41.25C25.6283 41.25 26.255 41.2383 26.88 41.215L26.6975 36.22C26.1342 36.24 25.5683 36.25 25 36.25C20.4567 36.25 16.6125 35.6883 13.4675 34.565C12.1358 34.09 11.1425 33.5758 10.4875 33.0225C10.1625 32.7475 10 32.5733 10 32.5H5C5 35.4 7.26167 37.6583 11.785 39.275C15.4733 40.5917 19.8783 41.25 25 41.25Z" fill="url(#paint0_linear_85_316)"/>
<path d="M40.245 33.75L43.995 40.245L40.245 46.74H32.745L28.995 40.245L32.745 33.75H40.245Z" fill="url(#paint1_linear_85_316)"/>
<defs>
<linearGradient id="paint0_linear_85_316" x1="25" y1="7.5" x2="25" y2="41.25" gradientUnits="userSpaceOnUse">
<stop stop-color="#3FFF6C"/>
<stop offset="1" stop-color="#009543"/>
</linearGradient>
<linearGradient id="paint1_linear_85_316" x1="36.495" y1="33.75" x2="36.495" y2="46.74" gradientUnits="userSpaceOnUse">
<stop stop-color="#3FFF6C"/>
<stop offset="1" stop-color="#009543"/>
</linearGradient>
</defs>
</svg>
