<svg width="46" height="46" viewBox="0 0 46 46" fill="none" xmlns="http://www.w3.org/2000/svg">
<g clip-path="url(#clip0_85_320)">
<path d="M28.5931 13.2287H17.3945C16.8609 13.1965 16.3266 13.2779 15.8268 13.4675C15.3271 13.6571 14.8732 13.9506 14.4952 14.3286C14.1172 14.7065 13.8238 15.1604 13.6342 15.6602C13.4446 16.16 13.3632 16.6943 13.3953 17.2279V28.8263C13.3953 30.8263 14.9955 32.4264 17.3945 32.4264H28.993C30.9929 32.4264 32.5931 30.8263 32.5931 28.4273V17.2286C32.6254 16.6949 32.544 16.1605 32.3544 15.6605C32.1649 15.1606 31.8713 14.7066 31.4932 14.3285C31.1152 13.9504 30.6612 13.6569 30.1612 13.4673C29.6613 13.2777 29.1268 13.1964 28.5931 13.2287ZM27.7934 18.0283V28.0266H18.1934V18.0283H27.7919H27.7934Z" fill="url(#paint0_linear_85_320)"/>
<path d="M43.7266 24.8531C43.9981 24.8584 44.268 24.8095 44.5204 24.7092C44.7728 24.6089 45.0027 24.4593 45.1966 24.2691C45.3905 24.0789 45.5445 23.852 45.6497 23.6015C45.7548 23.3511 45.809 23.0823 45.809 22.8107C45.809 22.539 45.7548 22.2702 45.6497 22.0198C45.5445 21.7693 45.3905 21.5424 45.1966 21.3522C45.0027 21.162 44.7728 21.0124 44.5204 20.9121C44.268 20.8119 43.9981 20.7629 43.7266 20.7682H38.2797V17.3642H43.7266C43.9981 17.3694 44.268 17.3205 44.5204 17.2202C44.7728 17.1199 45.0027 16.9703 45.1966 16.7801C45.3905 16.5899 45.5445 16.363 45.6497 16.1126C45.7548 15.8622 45.809 15.5933 45.809 15.3217C45.809 15.0501 45.7548 14.7812 45.6497 14.5308C45.5445 14.2804 45.3905 14.0534 45.1966 13.8632C45.0027 13.6731 44.7728 13.5234 44.5204 13.4232C44.268 13.3229 43.9981 13.2739 43.7266 13.2792H38.2797V12.9391C38.2863 12.1772 38.1412 11.4216 37.8526 10.7164C37.5641 10.0112 37.1381 9.37052 36.5993 8.83175C36.0605 8.29298 35.4198 7.86691 34.7146 7.5784C34.0094 7.2899 33.2539 7.14472 32.4919 7.15136H32.1519V2.04459C32.1158 1.51464 31.8891 1.01569 31.5135 0.640103C31.1379 0.264514 30.6389 0.0377245 30.109 0.00172022C29.0879 0.00172022 28.407 0.682675 28.407 2.04459V7.49146H25.0022V2.04459C24.9662 1.51464 24.7394 1.01569 24.3638 0.640103C23.9882 0.264514 23.4893 0.0377245 22.9593 0.00172022C22.688 -0.00964675 22.4173 0.0354158 22.1643 0.134057C21.9113 0.232699 21.6816 0.382772 21.4895 0.574785C21.2975 0.766797 21.1475 0.996569 21.0488 1.24957C20.9502 1.50256 20.9051 1.77328 20.9165 2.04459V7.49146H17.5125V2.04459C17.5021 1.50973 17.2824 1.00029 16.9005 0.6257C16.5185 0.251112 16.0049 0.0412766 15.47 0.0412766C14.935 0.0412766 14.4214 0.251112 14.0395 0.6257C13.6576 1.00029 13.4379 1.50973 13.4275 2.04459V7.49146H13.0874C12.3255 7.48482 11.5699 7.62999 10.8647 7.9185C10.1595 8.20701 9.51883 8.63308 8.98006 9.17185C8.44129 9.71062 8.01522 10.3513 7.72671 11.0565C7.4382 11.7617 7.29303 12.5173 7.29967 13.2792V13.6193H2.19366C1.65881 13.6296 1.14936 13.8494 0.77477 14.2313C0.400183 14.6132 0.190347 15.1268 0.190347 15.6618C0.190347 16.1967 0.400183 16.7103 0.77477 17.0922C1.14936 17.4742 1.65881 17.6939 2.19366 17.7043H7.64053V21.1098H2.19366C1.94128 21.032 1.67348 21.0184 1.41452 21.0703C1.15557 21.1222 0.913668 21.2379 0.710762 21.4069C0.507857 21.576 0.350367 21.793 0.252582 22.0383C0.154796 22.2837 0.119808 22.5495 0.150792 22.8118C0.186796 23.3417 0.413586 23.8407 0.789175 24.2163C1.16476 24.5919 1.66372 24.8187 2.19366 24.8547H7.64053V28.2587H2.19366C1.92211 28.2534 1.65223 28.3024 1.39982 28.4026C1.14741 28.5029 0.917533 28.6525 0.723631 28.8427C0.529729 29.0329 0.375698 29.2598 0.270547 29.5103C0.165396 29.7607 0.111237 30.0296 0.111237 30.3012C0.111237 30.5728 0.165396 30.8416 0.270547 31.0921C0.375698 31.3425 0.529729 31.5694 0.723631 31.7596C0.917533 31.9498 1.14741 32.0994 1.39982 32.1997C1.65223 32.3 1.92211 32.3489 2.19366 32.3436H7.64053V32.6837C7.63389 33.4456 7.77906 34.2012 8.06757 34.9064C8.35608 35.6116 8.78215 36.2523 9.32092 36.7911C9.85969 37.3298 10.5004 37.7559 11.2056 38.0444C11.9108 38.3329 12.6664 38.4781 13.4283 38.4715H13.7684V43.9183C13.7787 44.4532 13.9985 44.9626 14.3804 45.3372C14.7623 45.7118 15.2759 45.9217 15.8108 45.9217C16.3458 45.9217 16.8594 45.7118 17.2413 45.3372C17.6232 44.9626 17.843 44.4532 17.8533 43.9183V38.4707H21.2589V43.9176C21.2536 44.1891 21.3026 44.459 21.4028 44.7114C21.5031 44.9638 21.6527 45.1937 21.8429 45.3876C22.0331 45.5815 22.26 45.7355 22.5105 45.8407C22.7609 45.9458 23.0297 46 23.3014 46C23.573 46 23.8418 45.9458 24.0922 45.8407C24.3427 45.7355 24.5696 45.5815 24.7598 45.3876C24.95 45.1937 25.0996 44.9638 25.1999 44.7114C25.3001 44.459 25.3491 44.1891 25.3438 43.9176V38.4707H28.7478V43.9176C28.7426 44.1891 28.7915 44.459 28.8918 44.7114C28.9921 44.9638 29.1417 45.1937 29.3319 45.3876C29.5221 45.5815 29.749 45.7355 29.9994 45.8407C30.2498 45.9458 30.5187 46 30.7903 46C31.0619 46 31.3308 45.9458 31.5812 45.8407C31.8316 45.7355 32.0586 45.5815 32.2488 45.3876C32.4389 45.1937 32.5886 44.9638 32.6888 44.7114C32.7891 44.459 32.8381 44.1891 32.8328 43.9176V38.4707H33.1729C36.2368 38.4707 38.1947 36.0877 38.1947 32.683V32.002H43.6415C44.1764 31.9917 44.6858 31.7719 45.0604 31.39C45.435 31.0081 45.6448 30.4945 45.6448 29.9595C45.6448 29.4246 45.435 28.911 45.0604 28.5291C44.6858 28.1471 44.1764 27.9274 43.6415 27.917H38.2797V24.8531H43.7266ZM34.5348 12.9376V32.6837C34.5484 32.9108 34.5137 33.1382 34.433 33.3508C34.3523 33.5635 34.2274 33.7566 34.0666 33.9175C33.9057 34.0783 33.7126 34.2032 33.4999 34.284C33.2872 34.3647 33.0599 34.3994 32.8328 34.3857H13.0874C12.8603 34.3994 12.633 34.3647 12.4203 34.284C12.2076 34.2032 12.0145 34.0783 11.8536 33.9175C11.6928 33.7566 11.5679 33.5635 11.4872 33.3508C11.4065 33.1382 11.3718 32.9108 11.3854 32.6837V12.9383C11.3718 12.7113 11.4065 12.4839 11.4872 12.2712C11.5679 12.0586 11.6928 11.8654 11.8536 11.7046C12.0145 11.5437 12.2076 11.4188 12.4203 11.3381C12.633 11.2574 12.8603 11.2227 13.0874 11.2363H32.8328C33.0599 11.2227 33.2872 11.2574 33.4999 11.3381C33.7126 11.4188 33.9057 11.5437 34.0666 11.7046C34.2274 11.8654 34.3523 12.0586 34.433 12.2712C34.5137 12.4839 34.5484 12.7113 34.5348 12.9383V12.9376Z" fill="url(#paint1_linear_85_320)"/>
</g>
<defs>
<linearGradient id="paint0_linear_85_320" x1="22.9942" y1="13.2218" x2="22.9942" y2="32.4264" gradientUnits="userSpaceOnUse">
<stop stop-color="#F903A4"/>
<stop offset="1" stop-color="#FFB803"/>
</linearGradient>
<linearGradient id="paint1_linear_85_320" x1="22.9601" y1="0" x2="22.9601" y2="46" gradientUnits="userSpaceOnUse">
<stop stop-color="#F903A4"/>
<stop offset="1" stop-color="#FFB803"/>
</linearGradient>
<clipPath id="clip0_85_320">
<rect width="46" height="46" fill="white"/>
</clipPath>
</defs>
</svg>
