<svg width="32" height="32" viewBox="0 0 32 32" fill="none" xmlns="http://www.w3.org/2000/svg">
<path d="M20.6667 7.33333C21.1971 7.33333 21.7058 7.54405 22.0809 7.91912C22.456 8.29419 22.6667 8.8029 22.6667 9.33333V28C22.6667 28.5304 22.456 29.0391 22.0809 29.4142C21.7058 29.7893 21.1971 30 20.6667 30H6C5.73736 30 5.47728 29.9483 5.23463 29.8478C4.99198 29.7472 4.7715 29.5999 4.58579 29.4142C4.40007 29.2285 4.25275 29.008 4.15224 28.7654C4.05173 28.5227 4 28.2626 4 28V9.33333C4 8.8029 4.21071 8.29419 4.58579 7.91912C4.96086 7.54405 5.46957 7.33333 6 7.33333H20.6667ZM20 10H6.66667V27.3333H20V10ZM25.9947 2C26.4921 1.99969 26.9717 2.18475 27.3401 2.51904C27.7084 2.85334 27.9389 3.31289 27.9867 3.808L27.9947 4V21.9907C27.9943 22.3305 27.8642 22.6574 27.6309 22.9045C27.3976 23.1516 27.0787 23.3003 26.7395 23.3202C26.4002 23.3401 26.0662 23.2298 25.8056 23.0116C25.545 22.7935 25.3775 22.4841 25.3373 22.1467L25.328 21.9907V4.66667H12C11.6734 4.66662 11.3582 4.54673 11.1142 4.32971C10.8701 4.1127 10.7142 3.81367 10.676 3.48933L10.6667 3.33333C10.6667 3.00676 10.7866 2.69155 11.0036 2.4475C11.2206 2.20346 11.5197 2.04754 11.844 2.00933L12 2H25.9947Z" fill="white"/>
</svg>
