<svg xmlns="http://www.w3.org/2000/svg" width="24" height="22" viewBox="0 0 48 44" fill="none">
  <path d="M42.7482 23.1489V31.24C42.0551 32.3155 41.0026 32.2178 39.8988 32.0467C39.2313 29.6755 37.6911 28.1111 35.0984 27.9889C32.1719 27.8422 30.4777 29.5289 29.6819 32.0467H19.7217C18.7463 29.3333 17.052 27.9155 14.716 27.9644C11.9179 28.0378 10.275 29.5778 9.53055 32.1444H7.60527C5.60297 32.12 5.29492 31.8511 5.29492 29.9689V10.8778C5.29492 9.1911 5.62864 8.84888 7.29722 8.84888H29.2198C30.8114 8.84888 31.1965 9.23999 31.2478 10.7311C31.2735 11.88 31.2478 13.0044 31.2478 14.2755C32.7624 14.2755 34.0716 14.3489 35.3807 14.2511C36.9723 14.1533 37.9735 14.8378 38.6922 16.0844C40.0014 18.4555 41.3876 20.8022 42.7482 23.1489ZM40.3865 23.8578C39.103 21.6089 37.9478 19.5311 36.7413 17.4778C36.6129 17.2578 36.1765 17.0622 35.8942 17.0622C34.893 17.0133 33.8662 17.0378 32.7624 17.0378V23.8578H40.3865Z" fill="white"/>
  <path d="M18.2084 32.8533C18.2084 34.7844 16.5911 36.3 14.5632 36.2511C12.6122 36.2022 11.0977 34.7111 11.0977 32.8289C11.0977 30.8977 12.7149 29.3822 14.7429 29.4311C16.6938 29.48 18.2084 30.9711 18.2084 32.8533ZM38.3854 32.78C38.3938 33.2262 38.3099 33.6696 38.1383 34.0849C37.9668 34.5002 37.7111 34.8793 37.3857 35.2005C37.0603 35.5216 36.6717 35.7787 36.242 35.9568C35.8123 36.135 35.35 36.2308 34.8814 36.2389C34.4128 36.2469 33.9471 36.1669 33.511 36.0036C33.0749 35.8403 32.6768 35.5967 32.3395 35.2869C32.0022 34.977 31.7323 34.607 31.5452 34.1978C31.3581 33.7886 31.2574 33.3484 31.249 32.9022C31.2233 30.9466 32.7636 29.4311 34.7915 29.4311C36.7682 29.4311 38.3341 30.8977 38.3854 32.78Z" fill="white"/>
</svg>