<svg width="44" height="44" viewBox="0 0 44 44" fill="none" xmlns="http://www.w3.org/2000/svg">
<path d="M22 40.3333C11.8745 40.3333 3.66663 32.1255 3.66663 22C3.66663 11.8745 11.8745 3.66666 22 3.66666C32.1255 3.66666 40.3333 11.8745 40.3333 22C40.3333 32.1255 32.1255 40.3333 22 40.3333ZM17.8016 36.0562C15.9929 32.2196 14.9451 28.0687 14.7161 23.8333H7.44696C7.8037 26.6546 8.97215 29.3116 10.8103 31.4815C12.6485 33.6513 15.0773 35.2406 17.8016 36.0562ZM18.3883 23.8333C18.6651 28.3048 19.943 32.505 22 36.212C24.1125 32.407 25.3466 28.1774 25.6116 23.8333H18.3883ZM36.553 23.8333H29.2838C29.0549 28.0687 28.007 32.2196 26.1983 36.0562C28.9226 35.2406 31.3514 33.6513 33.1896 31.4815C35.0278 29.3116 36.1962 26.6546 36.553 23.8333ZM7.44696 20.1667H14.7161C14.9451 15.9313 15.9929 11.7804 17.8016 7.94383C15.0773 8.75944 12.6485 10.3487 10.8103 12.5185C8.97215 14.6884 7.8037 17.3454 7.44696 20.1667ZM18.3901 20.1667H25.6098C25.3453 15.8228 24.1119 11.5931 22 7.788C19.8874 11.593 18.6533 15.8226 18.3883 20.1667H18.3901ZM26.1983 7.94383C28.007 11.7804 29.0549 15.9313 29.2838 20.1667H36.553C36.1962 17.3454 35.0278 14.6884 33.1896 12.5185C31.3514 10.3487 28.9226 8.75944 26.1983 7.94383Z" fill="white"/>
</svg>
