<svg width="35" height="35" viewBox="0 0 35 35" fill="none" xmlns="http://www.w3.org/2000/svg">
<path d="M23.3339 6.41895L24.4392 4.94482C25.2426 3.86514 26.7836 3.63887 27.8633 4.44264C28.943 5.24606 29.1693 6.78706 28.3655 7.86674L27.0403 9.68906C27.0403 9.68906 24.8536 8.33279 23.3339 6.41895Z" fill="#F48934"/>
<path opacity="0.77" d="M23.3339 6.41895L24.4392 4.94482C25.2426 3.86514 26.7836 3.63887 27.8633 4.44264C28.943 5.24606 28.8781 6.1427 28.0744 7.22272L26.7492 9.04503C26.7492 9.04469 24.8536 8.33279 23.3339 6.41895Z" fill="#F7B458"/>
<path opacity="0.63" d="M23.3339 6.41895L24.4392 4.94482C25.2426 3.86514 26.7836 3.63887 27.8633 4.44264C28.943 5.24606 27.5979 5.06336 26.7944 6.14337L25.4044 7.8968C25.4047 7.8968 24.8536 8.33279 23.3339 6.41895Z" fill="#FCDF97"/>
<path d="M20.9037 31.6879L22.7125 30.4475C23.3089 29.5438 24.0873 27.79 24.8394 27.0112L28.2301 23.5513C32.3353 18.6524 31.6863 11.2855 26.7877 7.1802C21.8888 3.07458 14.5218 3.72367 10.4166 8.62258L6.60036 13.6009C6.34816 13.9429 6.07008 14.2652 5.76857 14.5647L4.65039 16.2111L20.9037 31.6879Z" fill="#F8BE59"/>
<path opacity="0.68" d="M4.63074 17.9358L4.46155 15.9787C5.23222 15.2212 6.55505 13.7843 7.19941 12.915L10.4229 8.66279C17.2073 1.00407 25.3432 6.14647 25.3432 6.14647C25.3432 6.14647 21.0951 5.96343 17.1857 7.22243C10.2787 9.44731 8.85152 13.3418 8.48307 14.0024L5.42032 18.5633L4.63074 17.9358Z" fill="#FFCF48"/>
<path opacity="0.25" d="M20.9657 31.7305L22.7745 30.49C23.3709 29.5863 24.1494 27.8326 24.9015 27.0538L28.5616 23.1677C34.7766 14.021 26.8494 7.22241 26.8494 7.22241L26.2088 13.5445C26.153 14.0959 26.0504 14.641 25.9041 15.1756C25.3104 17.3461 24.5411 19.7733 23.4419 21.7503C23.0717 22.4159 22.5631 22.9944 21.9569 23.4554L18.165 26.3395L20.9657 31.7305Z" fill="#F49A5D"/>
<path opacity="0.77" d="M20.9657 31.7305L22.7745 30.4901C23.3709 29.5863 24.1494 27.8326 24.9015 27.0538L28.5616 23.1677C32.5345 17.8146 30.3522 12.5945 30.3522 12.5945C30.3522 12.5945 30.9182 16.5789 29.2962 20.1212C27.2773 24.5311 23.375 27.3932 22.7688 27.8542L18.165 26.3399L20.9657 31.7305Z" fill="#FCD297"/>
<path d="M18.4896 17.339C24.1916 22.4065 25.299 27.3655 22.6773 30.4927C20.0556 33.62 14.156 32.4312 9.22133 28.2939C4.28662 24.1565 2.18535 18.6379 4.80704 15.5106C7.42873 12.3834 13.1115 12.5597 18.4896 17.339Z" fill="#FCD5A7"/>
<path d="M9.21897 28.2412C10.3923 29.225 11.6654 30.0665 12.9655 30.7176C14.2657 31.3688 15.5674 31.8168 16.7964 32.0361C18.0255 32.2555 19.1577 32.2419 20.1285 31.996C21.0993 31.7502 21.8896 31.277 22.4544 30.6034C23.0192 29.9298 23.3473 29.0691 23.42 28.0703C23.4928 27.0715 23.3087 25.9542 22.8784 24.7823C22.4481 23.6104 21.7799 22.4067 20.9119 21.24C20.044 20.0734 18.9934 18.9666 17.8201 17.9828C16.6467 16.999 15.3737 16.1575 14.0735 15.5064C12.7734 14.8553 11.4716 14.4072 10.2426 14.1879C9.01357 13.9685 7.88134 13.9821 6.91054 14.228C5.93975 14.4738 5.14941 14.947 4.58464 15.6206C4.01988 16.2942 3.69175 17.155 3.619 18.1537C3.54625 19.1525 3.7303 20.2698 4.16064 21.4417C4.59098 22.6137 5.25918 23.8173 6.12709 24.984C6.995 26.1506 8.04562 27.2574 9.21897 28.2412Z" fill="#F9BD7D"/>
<path d="M17.7993 18.0597C22.6827 22.1542 24.8603 27.5982 22.6625 30.2195C20.4646 32.8409 14.4364 31.8585 9.55266 27.7643C4.66894 23.6702 2.7801 18.0141 4.97762 15.3928C7.17514 12.7714 12.916 13.9653 17.7993 18.0597Z" fill="#F2942F"/>
<path opacity="0.4" d="M17.7861 17.9744C22.4571 21.8906 24.5972 27.0286 22.5668 29.4503C20.5361 31.8724 14.6241 30.9799 9.95347 27.064C5.28285 23.1482 3.62129 17.6914 5.65198 15.2693C7.68266 12.8472 13.1152 14.0583 17.7861 17.9744Z" fill="#F26330"/>
<path opacity="0.6" d="M17.7764 17.8868C22.0198 21.4446 23.9292 26.1544 22.0407 28.407C20.1522 30.6592 14.8375 29.9004 10.5938 26.3429C6.35007 22.7854 4.78509 17.7757 6.67326 15.5235C8.56143 13.2712 13.5326 14.3293 17.7764 17.8868Z" fill="#F75B2B"/>
<path opacity="0.48" d="M17.7304 17.9848C21.5199 21.1616 23.2247 25.3676 21.5385 27.379C19.8523 29.3904 15.0439 28.739 11.2544 25.5621C7.46488 22.3852 6.12955 17.8855 7.81611 15.874C9.50266 13.8626 13.9409 14.8079 17.7304 17.9848Z" fill="#EA481C"/>
<path opacity="0.68" d="M17.8544 17.9942C21.0482 20.6719 22.4852 24.2166 21.0641 25.9119C19.6429 27.6073 15.6494 26.9585 12.4557 24.2808C9.26189 21.603 8.07684 17.9104 9.49829 16.2151C10.9197 14.5198 14.6606 15.3164 17.8544 17.9942Z" fill="#EA481C"/>
<path d="M20.4767 20.6753L18.9674 22.6884C17.8705 24.1629 15.7662 24.4719 14.2918 23.3747C12.8173 22.2778 12.5083 20.1735 13.6055 18.699L15.415 16.2107C15.415 16.2107 18.4011 18.0627 20.4767 20.6753Z" fill="#F48934"/>
<path opacity="0.35" d="M14.6893 23.6151C14.6893 23.6151 16.8797 25.0014 18.9671 22.6881L20.4764 20.675C20.4764 20.675 19.2819 19.1458 18.5011 18.6051C17.7206 18.0648 13.693 22.8894 14.6893 23.6151Z" fill="#F75B2B"/>
<path opacity="0.47" d="M14.2918 23.3747C14.2918 23.3747 16.7821 25.2493 18.9675 22.6884L20.4767 20.6753C20.4767 20.6753 20.1873 20.3227 19.6601 20.9718C19.0225 21.7567 17.6608 24.5611 14.3576 23.1997C14.3576 23.1997 14.2219 23.2237 14.2334 23.3301L14.2918 23.3747Z" fill="#FFB27D"/>
<path opacity="0.38" d="M15.415 16.2107L13.6055 18.699C13.0375 19.4626 12.8463 20.395 12.999 21.269C12.999 21.269 13.0777 21.6398 13.1337 21.7911C13.1901 21.9421 13.2918 22.5466 13.2918 20.9326C13.2918 19.8212 13.7082 19.0063 14.4326 18.1728C16.0992 16.2556 15.415 16.2107 15.415 16.2107Z" fill="#FCCBA9"/>
<path d="M13.9784 22.8995C13.5029 21.8638 13.8927 20.677 14.0602 20.1975C14.1071 20.0631 14.2591 19.9982 14.3894 20.0556L14.3871 20.0546C14.4486 20.0818 14.4978 20.1311 14.5248 20.1927C14.5518 20.2544 14.5547 20.3239 14.533 20.3876C14.3658 20.8803 14.0507 22.0765 14.4833 23.1319C14.4907 23.1498 14.4749 23.4764 14.457 23.4838L14.357 23.42C14.0774 23.2349 14.0848 23.1309 13.9784 22.8995Z" fill="#CC3A00"/>
<path opacity="0.17" d="M12.3448 9.21189C12.3448 10.4824 13.0819 11.7009 14.3938 12.5993C15.7057 13.4977 17.485 14.0024 19.3403 14.0024C21.1956 14.0024 22.9749 13.4977 24.2868 12.5993C25.5987 11.7009 26.3358 10.4824 26.3358 9.21189C26.3358 7.94137 25.5987 6.72289 24.2868 5.82449C22.9749 4.9261 21.1956 4.42139 19.3403 4.42139C17.485 4.42139 15.7057 4.9261 14.3938 5.82449C13.0819 6.72289 12.3448 7.94137 12.3448 9.21189Z" fill="#FCDF97"/>
<path opacity="0.62" d="M14.1273 13.7373C13.5562 13.2584 13.4816 12.4077 13.9601 11.8366L18.0272 6.98533C18.5061 6.41426 19.3568 6.33962 19.9279 6.81816C20.499 7.29705 20.5736 8.14775 20.0951 8.71883L16.028 13.5705C15.5494 14.1412 14.6984 14.2162 14.1273 13.7373Z" fill="#FCDF97"/>
<path d="M13.6448 20.4609C13.6448 20.6196 13.7078 20.7718 13.8201 20.884C13.9323 20.9962 14.0845 21.0593 14.2432 21.0593C14.4019 21.0593 14.5541 20.9962 14.6664 20.884C14.7786 20.7718 14.8416 20.6196 14.8416 20.4609C14.8416 20.3021 14.7786 20.1499 14.6664 20.0377C14.5541 19.9255 14.4019 19.8624 14.2432 19.8624C14.0845 19.8624 13.9323 19.9255 13.8201 20.0377C13.7078 20.1499 13.6448 20.3021 13.6448 20.4609Z" fill="#BC3100"/>
</svg>
