<svg
  xmlns="http://www.w3.org/2000/svg"
  width="18"
  height="18"
  viewBox="0 0 38 38"
  fill="none"
>
  <path
    d="M27.823 14.6236H11.5681C11.666 16.703 12.558 18.5826 13.9457 19.9646C15.4211 21.434 17.4557 22.3371 19.6956 22.3371C21.9455 22.3371 23.9801 21.434 25.4508 19.9646C26.8378 18.5873 27.7299 16.7077 27.823 14.6236ZM2.09277 14.6236C2.09277 12.9847 3.33796 11.6115 4.9748 11.4447L7.70084 11.167C9.0588 5.63098 14.0733 1.52002 20.0487 1.52002C27.0681 1.52002 32.7592 7.18781 32.7592 14.1838C32.7592 14.3304 32.7545 14.4763 32.7498 14.6276H31.1129C31.015 17.6155 29.755 20.3102 27.7798 22.2826C25.7115 24.3425 22.8585 25.6169 19.7016 25.6169C16.5495 25.6169 13.6918 24.3425 11.6282 22.2826C9.64763 20.3102 8.38759 17.6155 8.28967 14.6276L2.09277 14.6236ZM13.631 27.4091H26.4732C28.4801 27.4091 30.2965 28.5947 31.0967 30.4279L33.8228 36.67H7.02355L8.81706 30.937C9.47409 28.8381 11.4243 27.4091 13.631 27.4091Z"
    fill="black"
  />
</svg>