<svg xmlns="http://www.w3.org/2000/svg" width="18" height="18" viewBox="0 0 38 36" fill="none">
  <g clip-path="url(#clip0_16_1715)">
    <path d="M37.9121 24.9152C37.9121 26.1949 37.1552 27.3621 35.9517 27.9352C35.9517 27.9352 26.312 32.516 22.1105 34.5023C21.2281 34.9207 20.1907 34.309 20.1907 33.3668V16.0453C20.1907 15.3316 20.6633 14.6953 21.3647 14.4563L26.4375 12.7301C26.5335 12.6984 26.6332 12.7652 26.6332 12.8637V19.7965C26.6332 20.0039 26.8657 20.141 27.0614 20.0496L28.6711 19.2832C28.8705 19.1883 28.996 18.9914 28.996 18.7805V12.0551C28.996 11.9355 29.0735 11.8301 29.1917 11.7914L36.7159 9.23203C37.2918 9.03516 37.901 9.44297 37.901 10.0266C37.9121 13.7496 37.9121 24.9152 37.9121 24.9152ZM17.8278 16.0383V33.2789C17.8278 34.2352 16.7535 34.8469 15.8711 34.3934L1.97458 27.2883C0.826377 26.7012 0.106445 25.5586 0.106445 24.3141C0.106445 24.3141 0.110137 13.616 0.117521 9.97031C0.117521 9.38672 0.726694 8.97891 1.30264 9.1793L16.6575 14.4492C17.359 14.6918 17.8278 15.3246 17.8278 16.0383ZM36.247 7.00313L28.5714 9.61524C28.4348 9.66094 28.2835 9.65742 28.1506 9.6082L11.1897 3.05508C11.0642 3.00586 11.0679 2.83711 11.1934 2.79141L17.7688 0.442969C18.1712 0.298828 18.5921 0.228516 19.013 0.228516C19.4338 0.228516 19.851 0.298828 20.2535 0.439453L35.6083 5.8957C35.8741 5.99063 36.1215 6.11367 36.3504 6.25781C36.6494 6.45117 36.5867 6.88711 36.247 7.00313ZM24.3109 10.5434C24.562 10.6418 24.5546 10.9828 24.2998 11.0672L20.2055 12.4594C19.4301 12.723 18.5847 12.723 17.8094 12.4559L1.86012 6.97852C1.51308 6.85898 1.46139 6.4125 1.77152 6.22617C1.97088 6.11016 2.18133 6.0082 2.40653 5.92734L7.35745 4.1625C7.49774 4.11328 7.64911 4.11328 7.78572 4.16953L24.3109 10.5434Z" fill="white"/>
  </g>
  <defs>
    <clipPath id="clip0_16_1715">
      <rect width="37.8056" height="36" fill="white" transform="translate(0.106445)"/>
    </clipPath>
  </defs>
</svg>