<svg width="54" height="54" viewBox="0 0 54 54" fill="none" xmlns="http://www.w3.org/2000/svg">
<path d="M44.7429 6.75C44.7429 6.75 41.6572 6.75 36.6429 4.82143C31.2429 2.89286 27.9643 0.771429 27.9643 0.771429L26.4215 0L25.0715 0.771429C25.0715 0.771429 21.6001 2.89286 16.3929 4.82143C11.1858 6.55714 8.29291 6.75 8.29291 6.75L5.78577 6.94286V33.5571C5.78577 43.3929 24.1072 54 26.4215 54C28.5429 54 47.0572 43.3929 47.0572 33.5571V6.94286L44.7429 6.75ZM25.0715 37.4143L15.4286 28.5429L18.3215 24.8786L24.4929 30.4714L36.0643 16.0071L39.5358 19.2857L25.0715 37.4143Z" fill="url(#paint0_linear_25_614)"/>
<defs>
<linearGradient id="paint0_linear_25_614" x1="26.4215" y1="0" x2="26.4215" y2="54" gradientUnits="userSpaceOnUse">
<stop stop-color="#F903A4"/>
<stop offset="1" stop-color="#FFB803"/>
</linearGradient>
</defs>
</svg>
