<svg width="54" height="54" viewBox="0 0 54 54" fill="none" xmlns="http://www.w3.org/2000/svg">
<path d="M31.2253 21.246C30.6681 21.8032 30.0066 22.2452 29.2787 22.5467C28.5507 22.8483 27.7705 23.0035 26.9825 23.0035C26.1945 23.0035 25.4143 22.8483 24.6863 22.5467C23.9584 22.2452 23.2969 21.8032 22.7398 21.246L20.6188 19.1235L24.8608 14.8815L18.2908 8.3115C18.0095 8.03029 17.628 7.87232 17.2303 7.87232C16.8325 7.87232 16.451 8.03029 16.1698 8.3115L3.44225 21.039C3.16105 21.3203 3.00307 21.7018 3.00307 22.0995C3.00307 22.4972 3.16105 22.8787 3.44225 23.16L25.9213 45.6405C26.2025 45.9217 26.584 46.0797 26.9818 46.0797C27.3795 46.0797 27.761 45.9217 28.0423 45.6405L29.1043 44.58L25.9213 41.3985C25.778 41.2601 25.6637 41.0946 25.5851 40.9116C25.5065 40.7286 25.4651 40.5318 25.4634 40.3326C25.4616 40.1334 25.4996 39.9359 25.575 39.7516C25.6504 39.5672 25.7618 39.3997 25.9027 39.2589C26.0435 39.1181 26.211 39.0067 26.3953 38.9313C26.5797 38.8558 26.7772 38.8179 26.9764 38.8196C27.1755 38.8214 27.3724 38.8627 27.5554 38.9413C27.7384 39.02 27.9039 39.1342 28.0423 39.2775L31.2253 42.4575L33.3463 40.338L30.1648 37.155C30.0215 37.0166 29.9072 36.8511 29.8286 36.6681C29.75 36.4851 29.7086 36.2883 29.7069 36.0891C29.7051 35.8899 29.7431 35.6924 29.8185 35.5081C29.8939 35.3237 30.0053 35.1562 30.1462 35.0154C30.287 34.8746 30.4545 34.7632 30.6388 34.6878C30.8232 34.6123 31.0207 34.5744 31.2199 34.5761C31.419 34.5779 31.6159 34.6192 31.7989 34.6978C31.9819 34.7765 32.1474 34.8907 32.2858 35.034L35.4673 38.2155L37.5883 36.0945L34.4083 32.913C34.2616 32.7755 34.1441 32.61 34.0628 32.4262C33.9814 32.2424 33.9378 32.0441 33.9345 31.8432C33.9312 31.6422 33.9684 31.4426 34.0438 31.2563C34.1191 31.07 34.2312 30.9007 34.3733 30.7585C34.5153 30.6164 34.6845 30.5042 34.8708 30.4287C35.0571 30.3532 35.2566 30.3159 35.4576 30.319C35.6586 30.3221 35.8569 30.3656 36.0407 30.4469C36.2245 30.5281 36.3902 30.6455 36.5278 30.792L39.7108 33.9735L40.7713 32.913C41.0525 32.6317 41.2104 32.2502 41.2104 31.8525C41.2104 31.4548 41.0525 31.0733 40.7713 30.792L31.2253 21.246ZM42.8923 35.034L30.1648 47.7615C29.7469 48.1794 29.2508 48.511 28.7048 48.7372C28.1587 48.9634 27.5735 49.0798 26.9825 49.0798C26.3915 49.0798 25.8063 48.9634 25.2603 48.7372C24.7142 48.511 24.2181 48.1794 23.8003 47.7615L1.31975 25.2825C0.901809 24.8646 0.570274 24.3685 0.34408 23.8225C0.117886 23.2765 0.00146484 22.6913 0.00146484 22.1003C0.00146484 21.5092 0.117886 20.924 0.34408 20.378C0.570274 19.832 0.901809 19.3359 1.31975 18.918L14.0488 6.1905C14.8926 5.34688 16.037 4.87296 17.2303 4.87296C18.4235 4.87296 19.5679 5.34688 20.4118 6.1905L26.9818 12.7605L33.5578 6.1845C33.9756 5.76656 34.4717 5.43502 35.0177 5.20883C35.5638 4.98263 36.149 4.86621 36.74 4.86621C37.331 4.86621 37.9162 4.98263 38.4623 5.20883C39.0083 5.43502 39.5044 5.76656 39.9223 6.1845L52.6497 18.912C53.0677 19.3299 53.3992 19.826 53.6254 20.372C53.8516 20.918 53.968 21.5032 53.968 22.0942C53.968 22.6853 53.8516 23.2705 53.6254 23.8165C53.3992 24.3625 53.0677 24.8586 52.6497 25.2765L42.8923 35.034Z" fill="url(#paint0_linear_25_631)"/>
<defs>
<linearGradient id="paint0_linear_25_631" x1="26.9848" y1="4.86621" x2="26.9848" y2="49.0798" gradientUnits="userSpaceOnUse">
<stop stop-color="#F903A4"/>
<stop offset="1" stop-color="#FFB803"/>
</linearGradient>
</defs>
</svg>
