<svg width="50" height="50" viewBox="0 0 50 50" fill="none" xmlns="http://www.w3.org/2000/svg">
<g clip-path="url(#clip0_25_622)">
<path d="M46.4285 40.1786H31.25C31.0132 40.1786 30.7861 40.0846 30.6186 39.9171C30.4512 39.7497 30.3571 39.5226 30.3571 39.2858V37.4108C30.3571 36.4636 29.9808 35.5552 29.3111 34.8854C28.6413 34.2156 27.7329 33.8394 26.7857 33.8394H23.2143C22.2671 33.8394 21.3587 34.2156 20.6889 34.8854C20.0191 35.5552 19.6428 36.4636 19.6428 37.4108V39.2858C19.6428 39.403 19.6197 39.5191 19.5749 39.6275C19.53 39.7358 19.4642 39.8342 19.3813 39.9171C19.2984 40 19.2 40.0658 19.0917 40.1107C18.9833 40.1555 18.8672 40.1786 18.75 40.1786H3.57143C2.62422 40.1786 1.71582 40.5549 1.04605 41.2247C0.376274 41.8945 0 42.8029 0 43.7501L0 46.4286C0 47.3758 0.376274 48.2842 1.04605 48.954C1.71582 49.6238 2.62422 50.0001 3.57143 50.0001H46.4285C47.3757 50.0001 48.2841 49.6238 48.9539 48.954C49.6237 48.2842 50 47.3758 50 46.4286V43.7501C50 42.8029 49.6237 41.8945 48.9539 41.2247C48.2841 40.5549 47.3757 40.1786 46.4285 40.1786Z" fill="url(#paint0_linear_25_622)"/>
<path d="M26.7053 1.07148L30.7857 9.2054C30.9255 9.48345 31.1297 9.72411 31.3813 9.90735C31.6329 10.0906 31.9246 10.2111 32.2321 10.259L41.1607 11.5358C41.5264 11.6015 41.8668 11.767 42.1445 12.0139C42.4221 12.2608 42.6262 12.5795 42.7342 12.935C42.8423 13.2905 42.8501 13.669 42.7567 14.0286C42.6634 14.3882 42.4726 14.7151 42.2053 14.9733L35.8482 21.0625C35.6142 21.2913 35.4386 21.5729 35.3361 21.8836C35.2335 22.1944 35.2071 22.5252 35.2589 22.8482L36.7768 31.5536C36.8518 31.9098 36.8249 32.28 36.6992 32.6217C36.5736 32.9633 36.3542 33.2627 36.0662 33.4854C35.7783 33.7081 35.4334 33.8452 35.0711 33.881C34.7088 33.9167 34.3438 33.8497 34.0178 33.6875L25.8928 29.4643C25.6187 29.3158 25.3118 29.2381 25 29.2381C24.6882 29.2381 24.3813 29.3158 24.1071 29.4643L15.9107 33.7054C15.5848 33.8675 15.2197 33.9346 14.8574 33.8988C14.4952 33.8631 14.1503 33.726 13.8623 33.5033C13.5743 33.2805 13.355 32.9812 13.2293 32.6395C13.1036 32.2978 13.0768 31.9277 13.1518 31.5714L14.6696 22.8661C14.7215 22.543 14.695 22.2122 14.5925 21.9015C14.4899 21.5907 14.3143 21.3092 14.0803 21.0804L7.75893 14.9733C7.49166 14.7151 7.30084 14.3882 7.20751 14.0286C7.11419 13.669 7.12197 13.2905 7.23001 12.935C7.33804 12.5795 7.54213 12.2608 7.81979 12.0139C8.09744 11.767 8.43788 11.6015 8.80357 11.5358L17.7321 10.259C18.0397 10.2111 18.3314 10.0906 18.5829 9.90735C18.8345 9.72411 19.0387 9.48345 19.1786 9.2054L23.2946 1.07148C23.4492 0.750485 23.6913 0.479645 23.993 0.290099C24.2946 0.100554 24.6437 0 25 0C25.3563 0 25.7053 0.100554 26.007 0.290099C26.3087 0.479645 26.5507 0.750485 26.7053 1.07148Z" fill="url(#paint1_linear_25_622)"/>
</g>
<defs>
<linearGradient id="paint0_linear_25_622" x1="25" y1="33.8394" x2="25" y2="50.0001" gradientUnits="userSpaceOnUse">
<stop stop-color="#3FFF6C"/>
<stop offset="1" stop-color="#009543"/>
</linearGradient>
<linearGradient id="paint1_linear_25_622" x1="24.9821" y1="0" x2="24.9821" y2="33.9082" gradientUnits="userSpaceOnUse">
<stop stop-color="#3FFF6C"/>
<stop offset="1" stop-color="#009543"/>
</linearGradient>
<clipPath id="clip0_25_622">
<rect width="50" height="50" fill="white"/>
</clipPath>
</defs>
</svg>
