<svg width="54" height="54" viewBox="0 0 54 54" fill="none" xmlns="http://www.w3.org/2000/svg">
<path d="M42.093 11.5661C42.2853 12.2816 42.3528 13.068 42.3798 13.9961C42.7072 14.0231 43.0211 14.0569 43.3248 14.0974C45.3667 14.3708 47.169 14.9681 48.6101 16.4093C50.0546 17.847 50.652 19.6459 50.9253 21.681C51.1886 23.6182 51.1886 26.0685 51.1886 29.0385V33.7365C51.1886 36.7065 51.1886 39.1567 50.9253 41.094C50.652 43.1291 50.0546 44.928 48.6101 46.3691C47.169 47.8069 45.3667 48.4043 43.3248 48.6776C41.3842 48.9375 38.9272 48.9375 35.9505 48.9375H22.4403C18.4308 48.9375 15.2009 48.9375 12.6596 48.5966C10.0203 48.2423 7.79957 47.4829 6.03107 45.7279C4.26932 43.9661 3.50995 41.7454 3.1522 39.1129C2.8147 36.5816 2.8147 33.3551 2.8147 29.3557V11.6438C2.8147 8.00888 5.76445 5.0625 9.40945 5.0625H31.7013C33.4496 5.0625 34.7489 5.0625 35.8728 5.36287C38.9103 6.17287 41.2796 8.53538 42.093 11.5661ZM34.7355 9.5985C34.2461 9.47025 33.5846 9.45 31.3942 9.45H9.41282C9.12474 9.45 8.83947 9.50674 8.57331 9.61699C8.30715 9.72724 8.06532 9.88883 7.86161 10.0925C7.6579 10.2962 7.49631 10.5381 7.38606 10.8042C7.27582 11.0704 7.21907 11.3557 7.21907 11.6438C7.21907 11.9318 7.27582 12.2171 7.38606 12.4833C7.49631 12.7494 7.6579 12.9913 7.86161 13.195C8.06532 13.3987 8.30715 13.5603 8.57331 13.6705C8.83947 13.7808 9.12474 13.8375 9.41282 13.8375H35.9538L37.9754 13.8409C37.9762 13.4581 37.9332 13.0765 37.8472 12.7035C37.6468 11.9583 37.2537 11.279 36.7075 10.7339C36.1612 10.1889 35.4811 9.79725 34.7355 9.5985ZM39.3727 27C38.1791 27 37.0343 27.4742 36.1903 28.3182C35.3463 29.1622 34.8721 30.3069 34.8721 31.5006C34.8721 32.6942 35.3463 33.8389 36.1903 34.6829C37.0343 35.527 38.1791 36.0011 39.3727 36.0011C40.5663 36.0011 41.7111 35.527 42.5551 34.6829C43.3991 33.8389 43.8733 32.6942 43.8733 31.5006C43.8733 30.3069 43.3991 29.1622 42.5551 28.3182C41.7111 27.4742 40.5663 27 39.3727 27Z" fill="url(#paint0_linear_25_606)"/>
<defs>
<linearGradient id="paint0_linear_25_606" x1="27.0016" y1="5.0625" x2="27.0016" y2="48.9375" gradientUnits="userSpaceOnUse">
<stop stop-color="#3FFF6C"/>
<stop offset="1" stop-color="#009543"/>
</linearGradient>
</defs>
</svg>
