<svg width="32" height="32" viewBox="0 0 32 32" fill="none" xmlns="http://www.w3.org/2000/svg">
<path d="M18.7227 28.1375C18.7227 28.7459 19.0893 29.2947 19.6518 29.5278C20.2136 29.7609 20.8611 29.6319 21.2918 29.2019L28.1814 22.3115C28.4096 22.0834 28.4096 21.714 28.1814 21.4859L26.8786 20.1831C26.6505 19.955 26.2808 19.955 26.053 20.1831L21.7321 24.5044L21.7321 2.69748C21.7321 2.37904 21.4739 2.12061 21.1552 2.12061L19.2993 2.12061C18.9808 2.12061 18.7224 2.37873 18.7224 2.69748L18.7224 28.1375L18.7227 28.1375ZM13.2899 29.3015L13.2899 3.86873C13.2899 3.26029 12.9233 2.71154 12.3608 2.47842C11.7989 2.24529 11.1514 2.37436 10.7208 2.80436L3.83082 9.69467C3.6027 9.92279 3.6027 10.2922 3.83082 10.5203L5.13364 11.8231C5.36176 12.0512 5.73145 12.0512 5.95926 11.8231L10.2805 7.50186L10.2805 29.3015C10.2805 29.624 10.5421 29.8853 10.8643 29.8853L12.7058 29.8853C13.0283 29.8853 13.2899 29.624 13.2899 29.3015Z" fill="white"/>
</svg>
